<svg width="24" height="24" viewBox="0 0 24 24" fill="none" xmlns="http://www.w3.org/2000/svg">
<path d="M0.0848906 18.6373C0.102234 18.7047 0.124266 18.77 0.14625 18.8347C0.205594 19.0074 0.277594 19.1741 0.36825 19.3301C0.368953 19.3314 0.368953 19.3335 0.369656 19.3335H0.369984C0.831984 20.1275 1.68197 20.6668 2.66667 20.6668H21.3333C22.318 20.6668 23.168 20.1275 23.63 19.3335H23.6303C23.631 19.3335 23.631 19.3314 23.6317 19.3307C23.7217 19.1754 23.7937 19.0087 23.853 18.8367C23.8757 18.7707 23.8977 18.7047 23.915 18.6366C23.931 18.576 23.943 18.5147 23.9543 18.4534C23.9804 18.3095 23.9991 18.164 24 18.0113V18.0001V16.6668V15.3335V14.0002V12.6669V11.3336V10.0002V8.66693V7.33362V6.00012C24 5.84478 23.9814 5.69412 23.9541 5.54679C23.9434 5.48548 23.9307 5.42412 23.9154 5.36412C23.8974 5.29545 23.8754 5.22879 23.8527 5.16279C23.7934 4.99081 23.722 4.82478 23.6314 4.66948C23.6314 4.66882 23.6307 4.66747 23.6301 4.66681H23.6302C23.1682 3.87279 22.3182 3.3335 21.3335 3.3335H12V4.66681V6.00012V7.33343V8.66675V10.0001V11.3334V12.6667H0V14V15.3333V16.6666V18.0001C0 18.1554 0.0188438 18.3054 0.0454688 18.4527C0.0568125 18.5147 0.0695625 18.5767 0.0848906 18.6373Z" fill="#EEEEEE"/>
<path d="M23.6301 4.66681C23.1681 3.87279 22.3181 3.3335 21.3334 3.3335H12V4.66681H23.63H23.6301Z" fill="#B22334"/>
<path d="M0 18.0001H24V16.6667H0V18.0001Z" fill="#B22334"/>
<path d="M24 11.3335H12V12.6668H24V11.3335Z" fill="#B22334"/>
<path d="M24 8.66675H12V10.0001H24V8.66675Z" fill="#B22334"/>
<path d="M24 14.0002H0V15.3336H24V14.0002Z" fill="#B22334"/>
<path d="M21.3335 20.6668C22.3181 20.6668 23.1681 20.1275 23.6301 19.3335H0.370117C0.832117 20.1275 1.6821 20.6668 2.6668 20.6668H21.3335Z" fill="#B22334"/>
<path d="M24 6.00024H12V7.33356H24V6.00024Z" fill="#B22334"/>
<path d="M12 3.33325H2.66667C1.194 3.33325 0 4.52725 0 5.99992V12.6666H12V3.33325Z" fill="#3C3B6E"/>
<path d="M1.33398 5.15049L1.74597 5.44983L1.58866 5.93382L1.99998 5.63447L2.41197 5.93382L2.25395 5.44983L2.66664 5.15049H2.1573L1.99998 4.6665L1.84333 5.15049H1.33398Z" fill="white"/>
<path d="M2.66797 6.48374L3.07995 6.78308L2.92194 7.26707L3.33392 6.96773L3.7459 7.26707L3.58789 6.78308L4.00058 6.48374H3.49128L3.33397 5.99976L3.17731 6.48374H2.66797Z" fill="white"/>
<path d="M5.33398 6.48374L5.74597 6.78308L5.58795 7.26707L5.99993 6.96773L6.41192 7.26707L6.2539 6.78308L6.66659 6.48374H6.15725L5.99993 5.99976L5.84328 6.48374H5.33398Z" fill="white"/>
<path d="M8 6.48374L8.41199 6.78308L8.25397 7.26707L8.66595 6.96773L9.07794 7.26707L8.91992 6.78308L9.33261 6.48374H8.82327L8.66595 5.99976L8.5093 6.48374H8Z" fill="white"/>
<path d="M2.66797 9.15073L3.07995 9.45008L2.92194 9.93406L3.33392 9.63472L3.7459 9.93406L3.58789 9.45008L4.00058 9.15073H3.49128L3.33397 8.66675L3.17731 9.15073H2.66797Z" fill="white"/>
<path d="M5.33398 9.15073L5.74597 9.45008L5.58795 9.93406L5.99993 9.63472L6.41192 9.93406L6.2539 9.45008L6.66659 9.15073H6.15725L5.99993 8.66675L5.84328 9.15073H5.33398Z" fill="white"/>
<path d="M8 9.15073L8.41199 9.45008L8.25397 9.93406L8.66595 9.63472L9.07794 9.93406L8.91992 9.45008L9.33261 9.15073H8.82327L8.66595 8.66675L8.5093 9.15073H8Z" fill="white"/>
<path d="M4 5.15049L4.41198 5.44983L4.25397 5.93382L4.66595 5.63447L5.07794 5.93382L4.91992 5.44983L5.33261 5.15049H4.82327L4.66595 4.6665L4.5093 5.15049H4Z" fill="white"/>
<path d="M6.66699 5.15049L7.07898 5.44983L6.92096 5.93382L7.33295 5.63447L7.74493 5.93382L7.58691 5.44983L7.9996 5.15049H7.49026L7.33295 4.6665L7.17629 5.15049H6.66699Z" fill="white"/>
<path d="M9.33398 5.15049L9.74597 5.44983L9.58795 5.93382L9.99994 5.63447L10.4119 5.93382L10.2539 5.44983L10.6666 5.15049H10.1573L9.99994 4.6665L9.84328 5.15049H9.33398Z" fill="white"/>
<path d="M1.33398 7.81724L1.74597 8.11658L1.58866 8.60057L1.99998 8.30122L2.41197 8.60057L2.25395 8.11658L2.66664 7.81724H2.1573L1.99998 7.33325L1.84333 7.81724H1.33398Z" fill="white"/>
<path d="M4.25499 8.6004L4.66698 8.30105L5.0783 8.6004L4.92099 8.11641L5.33298 7.81707H4.82429L4.66698 7.33374L4.50966 7.81707H4.00098L4.4123 8.11641L4.25499 8.6004Z" fill="white"/>
<path d="M6.66699 7.81724L7.07898 8.11658L6.92096 8.60057L7.33295 8.30122L7.74493 8.60057L7.58691 8.11658L7.9996 7.81724H7.49026L7.33295 7.33325L7.17629 7.81724H6.66699Z" fill="white"/>
<path d="M9.33398 7.81724L9.74597 8.11658L9.58795 8.60057L9.99994 8.30122L10.4119 8.60057L10.2539 8.11658L10.6666 7.81724H10.1573L9.99994 7.33325L9.84328 7.81724H9.33398Z" fill="white"/>
<path d="M1.33398 10.484L1.74597 10.7833L1.58866 11.2673L1.99998 10.968L2.41197 11.2673L2.25395 10.7833L2.66664 10.484H2.1573L1.99998 10L1.84333 10.484H1.33398Z" fill="white"/>
<path d="M4.25499 11.2674L4.66698 10.968L5.0783 11.2674L4.92099 10.7834L5.33298 10.4841H4.82429L4.66698 10.0007L4.50966 10.4841H4.00098L4.4123 10.7834L4.25499 11.2674Z" fill="white"/>
<path d="M6.66699 10.484L7.07898 10.7833L6.92096 11.2673L7.33295 10.968L7.74493 11.2673L7.58691 10.7833L7.9996 10.484H7.49026L7.33295 10L7.17629 10.484H6.66699Z" fill="white"/>
<path d="M9.33398 10.484L9.74597 10.7833L9.58795 11.2673L9.99994 10.968L10.4119 11.2673L10.2539 10.7833L10.6666 10.484H10.1573L9.99994 10L9.84328 10.484H9.33398Z" fill="white"/>
</svg>
